<svg version="1.1" id="Layer_1" xmlns="http://www.w3.org/2000/svg" xmlns:xlink="http://www.w3.org/1999/xlink" x="0px" y="0px"
	 width="100%" viewBox="0 0 500 288" enable-background="new 0 0 500 288" xml:space="preserve">
<path fill="#010101" opacity="1.000000" stroke="none" 
	d="
M322.000000,289.000000 
	C214.700562,289.000000 107.901115,289.000000 1.050834,289.000000 
	C1.050834,193.064362 1.050834,97.128693 1.050834,1.096513 
	C167.549408,1.096513 334.098907,1.096513 500.824188,1.096513 
	C500.824188,96.999741 500.824188,192.999847 500.824188,289.000000 
	C441.462097,289.000000 381.981049,289.000000 322.000000,289.000000 
M246.500107,22.796726 
	C227.500488,22.796726 208.500854,22.796785 189.501236,22.796715 
	C148.334824,22.796562 107.165451,23.066698 66.003983,22.615488 
	C55.033073,22.495224 46.868000,29.047695 47.846027,41.026203 
	C48.400261,47.814220 47.945419,54.684608 47.945454,61.517899 
	C47.945778,124.017509 47.913166,186.517181 48.034359,249.016571 
	C48.041126,252.507507 48.661522,256.307953 50.140358,259.420837 
	C53.246719,265.959564 59.431400,266.919617 66.019333,266.917389 
	C188.685226,266.875916 311.351135,266.885376 434.017029,266.887878 
	C448.553894,266.888184 454.037140,261.364777 454.037415,246.668182 
	C454.038757,178.335266 453.876709,110.001602 454.196930,41.670193 
	C454.250031,30.337774 446.598358,22.592100 434.998230,22.649960 
	C372.500183,22.961697 309.999725,22.797020 246.500107,22.796726 
z"/>
<path fill="#FCFCFC" opacity="1.000000" stroke="none" 
	d="
M247.000122,22.796726 
	C309.999725,22.797020 372.500183,22.961697 434.998230,22.649960 
	C446.598358,22.592100 454.250031,30.337774 454.196930,41.670193 
	C453.876709,110.001602 454.038757,178.335266 454.037415,246.668182 
	C454.037140,261.364777 448.553894,266.888184 434.017029,266.887878 
	C311.351135,266.885376 188.685226,266.875916 66.019333,266.917389 
	C59.431400,266.919617 53.246719,265.959564 50.140358,259.420837 
	C48.661522,256.307953 48.041126,252.507507 48.034359,249.016571 
	C47.913166,186.517181 47.945778,124.017509 47.945454,61.517899 
	C47.945419,54.684608 48.400261,47.814220 47.846027,41.026203 
	C46.868000,29.047695 55.033073,22.495224 66.003983,22.615488 
	C107.165451,23.066698 148.334824,22.796562 189.501236,22.796715 
	C208.500854,22.796785 227.500488,22.796726 247.000122,22.796726 
M64.033875,247.839066 
	C64.331482,247.534607 64.629089,247.230148 65.180504,246.293610 
	C107.949097,206.119125 150.717682,165.944656 193.918076,125.364571 
	C150.146439,97.190453 107.194786,69.544136 63.607388,41.488613 
	C63.607388,44.248032 63.607315,46.063526 63.607391,47.879025 
	C63.610069,112.690231 63.611053,177.501450 63.625080,242.312653 
	C63.625443,243.971588 63.768990,245.630493 64.033875,247.839066 
M322.499939,251.215439 
	C356.825775,251.215439 391.151611,251.215439 426.849243,251.215439 
	C383.766174,210.417496 341.844238,170.719101 299.867950,130.969238 
	C284.713959,140.731918 269.841400,150.178833 255.145721,159.893295 
	C252.182281,161.852249 250.186478,161.779968 247.267410,159.857925 
	C231.849060,149.705734 216.273773,139.791901 200.495438,129.629547 
	C157.971619,169.907578 115.537239,210.100891 72.130226,251.215469 
	C156.309143,251.215469 238.904510,251.215469 322.499939,251.215439 
M187.500153,38.318558 
	C150.033768,38.318558 112.567383,38.318558 75.101006,38.318558 
	C75.467461,39.714458 75.989159,40.066845 76.518250,40.407738 
	C133.726166,77.265991 190.949768,114.100014 248.094299,151.056274 
	C250.695435,152.738464 252.314499,152.341568 254.636047,150.842514 
	C311.247803,114.287643 367.903412,77.800697 424.543274,41.289352 
	C425.555939,40.636562 426.472626,39.834938 428.463928,38.318577 
	C347.607574,38.318577 268.053864,38.318577 187.500153,38.318558 
M368.948059,185.552155 
	C391.792572,207.205307 414.637115,228.858459 438.051880,251.052109 
	C438.051880,180.980377 438.051880,111.871719 438.051880,41.915497 
	C393.986847,70.316078 350.547089,98.313652 306.689880,126.580261 
	C327.602966,146.387192 348.020508,165.724792 368.948059,185.552155 
z"/>
<path fill="#010101" opacity="1.000000" stroke="none" 
	d="
M321.999908,251.215454 
	C238.904510,251.215469 156.309143,251.215469 72.130226,251.215469 
	C115.537239,210.100891 157.971619,169.907578 200.495438,129.629547 
	C216.273773,139.791901 231.849060,149.705734 247.267410,159.857925 
	C250.186478,161.779968 252.182281,161.852249 255.145721,159.893295 
	C269.841400,150.178833 284.713959,140.731918 299.867950,130.969238 
	C341.844238,170.719101 383.766174,210.417496 426.849243,251.215439 
	C391.151611,251.215439 356.825775,251.215439 321.999908,251.215454 
z"/>
<path fill="#040404" opacity="1.000000" stroke="none" 
	d="
M188.000153,38.318565 
	C268.053864,38.318577 347.607574,38.318577 428.463928,38.318577 
	C426.472626,39.834938 425.555939,40.636562 424.543274,41.289352 
	C367.903412,77.800697 311.247803,114.287643 254.636047,150.842514 
	C252.314499,152.341568 250.695435,152.738464 248.094299,151.056274 
	C190.949768,114.100014 133.726166,77.265991 76.518250,40.407738 
	C75.989159,40.066845 75.467461,39.714458 75.101006,38.318558 
	C112.567383,38.318558 150.033768,38.318558 188.000153,38.318565 
z"/>
<path fill="#010101" opacity="1.000000" stroke="none" 
	d="
M368.693054,185.307281 
	C348.020508,165.724792 327.602966,146.387192 306.689880,126.580261 
	C350.547089,98.313652 393.986847,70.316078 438.051880,41.915497 
	C438.051880,111.871719 438.051880,180.980377 438.051880,251.052109 
	C414.637115,228.858459 391.792572,207.205307 368.693054,185.307281 
z"/>
<path fill="#010101" opacity="1.000000" stroke="none" 
	d="
M63.845753,247.289413 
	C63.768990,245.630493 63.625443,243.971588 63.625080,242.312653 
	C63.611053,177.501450 63.610069,112.690231 63.607391,47.879025 
	C63.607315,46.063526 63.607388,44.248032 63.607388,41.488613 
	C107.194786,69.544136 150.146439,97.190453 193.918076,125.364571 
	C150.717682,165.944656 107.949097,206.119125 64.775452,246.677078 
	C64.195518,247.136826 64.020638,247.213120 63.845753,247.289413 
z"/>
<path fill="#8D8D8D" opacity="1.000000" stroke="none" 
	d="
M63.939812,247.564240 
	C64.020638,247.213120 64.195518,247.136826 64.648560,246.993118 
	C64.629089,247.230148 64.331482,247.534607 63.939812,247.564240 
z"/>
</svg>