<svg version="1.1" id="Layer_1" xmlns="http://www.w3.org/2000/svg" xmlns:xlink="http://www.w3.org/1999/xlink" x="0px" y="0px"
	 width="100%" viewBox="0 0 1173 1145" enable-background="new 0 0 1173 1145" xml:space="preserve">
<path fill="#F9F9F9" opacity="1.000000" stroke="none" 
	d="
M658.000000,1146.000000 
	C438.666656,1146.000000 219.833328,1146.000000 1.000000,1146.000000 
	C1.000000,764.333313 1.000000,382.666656 1.000000,1.000000 
	C392.000000,1.000000 783.000000,1.000000 1174.000000,1.000000 
	C1174.000000,382.666656 1174.000000,764.333313 1174.000000,1146.000000 
	C1002.166687,1146.000000 830.333313,1146.000000 658.000000,1146.000000 
M161.175201,660.432800 
	C165.258270,672.892639 168.814484,685.555542 173.523483,697.774109 
	C187.500214,734.040283 205.936844,767.944397 229.247925,799.089966 
	C267.293396,849.921814 314.075653,890.662231 369.981232,920.955261 
	C402.926636,938.807068 437.641846,951.918213 473.974884,960.704590 
	C498.438843,966.620728 523.348022,970.040771 548.485718,971.499146 
	C595.050659,974.200378 640.981689,969.931030 685.771851,956.818420 
	C706.762329,950.673340 727.659790,943.657410 747.717651,934.994446 
	C789.554688,916.924988 827.048950,891.800415 860.809692,861.117310 
	C899.514587,825.941040 930.853027,785.144104 954.626343,738.577454 
	C968.332520,711.730042 978.961792,683.709106 986.731628,654.538940 
	C993.138062,630.487427 997.571106,606.092834 999.457825,581.360779 
	C1002.061096,547.237244 1001.130493,513.167297 995.812622,479.219788 
	C990.041382,442.377777 979.850952,406.876343 964.679688,372.889893 
	C935.659485,307.879120 893.114929,253.267761 837.115112,209.239273 
	C798.619629,178.973145 756.103943,156.007278 709.714722,140.419205 
	C681.931641,131.083298 653.412842,124.881271 624.239319,121.355087 
	C586.935486,116.846199 549.732910,117.362259 512.630127,122.467583 
	C485.277557,126.231285 458.538239,132.840912 432.406311,142.008148 
	C406.476501,151.104477 381.631775,162.400009 357.936829,176.264664 
	C297.380341,211.698196 248.389709,259.086761 210.813766,318.349854 
	C186.047195,357.410614 168.460815,399.520691 157.338242,444.305878 
	C151.272354,468.730316 147.730621,493.637482 146.178253,518.767761 
	C143.227402,566.537231 148.228729,613.500305 161.175201,660.432800 
z"/>
<path fill="#020202" opacity="1.000000" stroke="none" 
	d="
M161.112198,660.027039 
	C148.228729,613.500305 143.227402,566.537231 146.178253,518.767761 
	C147.730621,493.637482 151.272354,468.730316 157.338242,444.305878 
	C168.460815,399.520691 186.047195,357.410614 210.813766,318.349854 
	C248.389709,259.086761 297.380341,211.698196 357.936829,176.264664 
	C381.631775,162.400009 406.476501,151.104477 432.406311,142.008148 
	C458.538239,132.840912 485.277557,126.231285 512.630127,122.467583 
	C549.732910,117.362259 586.935486,116.846199 624.239319,121.355087 
	C653.412842,124.881271 681.931641,131.083298 709.714722,140.419205 
	C756.103943,156.007278 798.619629,178.973145 837.115112,209.239273 
	C893.114929,253.267761 935.659485,307.879120 964.679688,372.889893 
	C979.850952,406.876343 990.041382,442.377777 995.812622,479.219788 
	C1001.130493,513.167297 1002.061096,547.237244 999.457825,581.360779 
	C997.571106,606.092834 993.138062,630.487427 986.731628,654.538940 
	C978.961792,683.709106 968.332520,711.730042 954.626343,738.577454 
	C930.853027,785.144104 899.514587,825.941040 860.809692,861.117310 
	C827.048950,891.800415 789.554688,916.924988 747.717651,934.994446 
	C727.659790,943.657410 706.762329,950.673340 685.771851,956.818420 
	C640.981689,969.931030 595.050659,974.200378 548.485718,971.499146 
	C523.348022,970.040771 498.438843,966.620728 473.974884,960.704590 
	C437.641846,951.918213 402.926636,938.807068 369.981232,920.955261 
	C314.075653,890.662231 267.293396,849.921814 229.247925,799.089966 
	C205.936844,767.944397 187.500214,734.040283 173.523483,697.774109 
	C168.814484,685.555542 165.258270,672.892639 161.112198,660.027039 
M461.122009,278.672913 
	C450.708710,284.552917 439.969208,289.927917 429.941833,296.405304 
	C396.574188,317.959656 368.879608,345.420319 346.316071,378.117950 
	C328.832916,403.453369 315.511719,430.862305 306.108673,460.077087 
	C298.453186,483.862305 293.735474,508.285370 291.432251,533.271362 
	C287.303314,578.062988 291.896851,621.585449 307.588043,663.868164 
	C321.569305,701.543213 343.583527,733.657410 373.500580,760.429443 
	C396.573547,781.076599 422.766968,796.584106 451.612000,807.605896 
	C472.814087,815.707214 494.801880,820.959473 517.333618,823.506348 
	C542.926331,826.399231 568.611328,825.406616 594.216248,823.537415 
	C606.145508,822.666565 618.165222,821.272278 629.805542,818.626648 
	C646.274719,814.883423 662.577271,810.223267 678.680969,805.105347 
	C695.928406,799.623901 702.046875,775.476868 689.888733,762.833374 
	C681.945801,754.573364 672.383118,754.778809 662.589722,758.190369 
	C635.980957,767.459656 608.506287,772.088684 580.484375,773.370544 
	C538.647583,775.284546 498.187225,769.397766 460.281525,750.452576 
	C426.080139,733.358765 399.781952,707.944275 381.412506,674.497925 
	C364.032135,642.852539 356.195953,608.460388 354.394379,572.714111 
	C352.209473,529.361145 358.040344,487.154877 374.202484,446.562561 
	C385.717102,417.642761 401.815582,391.601257 423.391327,369.304443 
	C464.389954,326.935638 514.715393,303.530121 573.416748,298.761322 
	C610.178162,295.774933 646.076965,300.106720 680.682861,313.731750 
	C701.059387,321.754364 719.330994,332.964966 735.234131,347.902557 
	C765.362488,376.201782 782.241821,411.628265 788.606018,451.952301 
	C794.192017,487.344940 792.748047,522.614197 782.534302,557.270203 
	C776.577820,577.481140 767.763062,596.070923 752.679199,611.132690 
	C740.455139,623.338867 726.376587,631.388550 708.233643,629.730286 
	C699.783752,628.957947 693.150208,624.893372 690.922913,616.983093 
	C688.396057,608.008850 686.131409,598.372559 686.747742,589.225830 
	C687.975342,571.007690 691.053894,552.898193 693.739258,534.798950 
	C696.299744,517.541687 699.318359,500.352203 702.163086,483.137482 
	C704.114136,471.330627 706.314819,459.560822 708.024902,447.719727 
	C709.376343,438.361603 711.347412,428.858490 710.867249,419.531830 
	C710.313354,408.772430 704.885132,399.152313 694.046692,395.750397 
	C681.283691,391.744385 668.020752,389.093109 654.810730,386.797333 
	C625.286194,381.666168 595.827393,382.337494 566.536804,389.119843 
	C537.662781,395.805725 511.585663,408.309723 489.022308,427.417816 
	C450.393372,460.131378 428.589874,502.086060 422.162476,552.223389 
	C418.873383,577.880310 420.027405,603.068665 429.464294,627.405884 
	C439.788635,654.031799 458.011017,673.257446 485.569214,681.443054 
	C516.653503,690.676147 546.564575,685.458679 574.482117,669.367615 
	C592.064941,659.233215 605.844666,644.867920 617.635315,628.489685 
	C619.029663,626.552673 620.896484,624.955811 622.887512,622.835876 
	C624.155518,628.148865 625.043457,632.182617 626.083496,636.176758 
	C633.395874,664.257935 651.779297,679.513733 677.483582,684.095947 
	C703.059998,688.655334 728.108765,684.549072 751.786072,674.597107 
	C781.804321,661.979919 804.765198,640.683289 821.580627,612.863037 
	C839.179443,583.746887 848.075745,551.886353 851.544189,518.206726 
	C856.402466,471.031982 850.589905,425.657074 830.563965,382.341248 
	C814.874268,348.404663 791.930603,320.380341 762.204285,297.940308 
	C735.721985,277.949127 706.161194,264.321594 673.932678,256.299866 
	C655.626038,251.743332 637.137695,247.999603 618.311462,247.980606 
	C597.035950,247.959137 575.666748,248.558075 554.513733,250.655640 
	C539.550842,252.139359 524.564697,255.535263 510.161133,259.946228 
	C493.703247,264.986298 477.879578,272.097321 461.122009,278.672913 
z"/>
<path fill="#F6F6F6" opacity="1.000000" stroke="none" 
	d="
M461.451172,278.490662 
	C477.879578,272.097321 493.703247,264.986298 510.161133,259.946228 
	C524.564697,255.535263 539.550842,252.139359 554.513733,250.655640 
	C575.666748,248.558075 597.035950,247.959137 618.311462,247.980606 
	C637.137695,247.999603 655.626038,251.743332 673.932678,256.299866 
	C706.161194,264.321594 735.721985,277.949127 762.204285,297.940308 
	C791.930603,320.380341 814.874268,348.404663 830.563965,382.341248 
	C850.589905,425.657074 856.402466,471.031982 851.544189,518.206726 
	C848.075745,551.886353 839.179443,583.746887 821.580627,612.863037 
	C804.765198,640.683289 781.804321,661.979919 751.786072,674.597107 
	C728.108765,684.549072 703.059998,688.655334 677.483582,684.095947 
	C651.779297,679.513733 633.395874,664.257935 626.083496,636.176758 
	C625.043457,632.182617 624.155518,628.148865 622.887512,622.835876 
	C620.896484,624.955811 619.029663,626.552673 617.635315,628.489685 
	C605.844666,644.867920 592.064941,659.233215 574.482117,669.367615 
	C546.564575,685.458679 516.653503,690.676147 485.569214,681.443054 
	C458.011017,673.257446 439.788635,654.031799 429.464294,627.405884 
	C420.027405,603.068665 418.873383,577.880310 422.162476,552.223389 
	C428.589874,502.086060 450.393372,460.131378 489.022308,427.417816 
	C511.585663,408.309723 537.662781,395.805725 566.536804,389.119843 
	C595.827393,382.337494 625.286194,381.666168 654.810730,386.797333 
	C668.020752,389.093109 681.283691,391.744385 694.046692,395.750397 
	C704.885132,399.152313 710.313354,408.772430 710.867249,419.531830 
	C711.347412,428.858490 709.376343,438.361603 708.024902,447.719727 
	C706.314819,459.560822 704.114136,471.330627 702.163086,483.137482 
	C699.318359,500.352203 696.299744,517.541687 693.739258,534.798950 
	C691.053894,552.898193 687.975342,571.007690 686.747742,589.225830 
	C686.131409,598.372559 688.396057,608.008850 690.922913,616.983093 
	C693.150208,624.893372 699.783752,628.957947 708.233643,629.730286 
	C726.376587,631.388550 740.455139,623.338867 752.679199,611.132690 
	C767.763062,596.070923 776.577820,577.481140 782.534302,557.270203 
	C792.748047,522.614197 794.192017,487.344940 788.606018,451.952301 
	C782.241821,411.628265 765.362488,376.201782 735.234131,347.902557 
	C719.330994,332.964966 701.059387,321.754364 680.682861,313.731750 
	C646.076965,300.106720 610.178162,295.774933 573.416748,298.761322 
	C514.715393,303.530121 464.389954,326.935638 423.391327,369.304443 
	C401.815582,391.601257 385.717102,417.642761 374.202484,446.562561 
	C358.040344,487.154877 352.209473,529.361145 354.394379,572.714111 
	C356.195953,608.460388 364.032135,642.852539 381.412506,674.497925 
	C399.781952,707.944275 426.080139,733.358765 460.281525,750.452576 
	C498.187225,769.397766 538.647583,775.284546 580.484375,773.370544 
	C608.506287,772.088684 635.980957,767.459656 662.589722,758.190369 
	C672.383118,754.778809 681.945801,754.573364 689.888733,762.833374 
	C702.046875,775.476868 695.928406,799.623901 678.680969,805.105347 
	C662.577271,810.223267 646.274719,814.883423 629.805542,818.626648 
	C618.165222,821.272278 606.145508,822.666565 594.216248,823.537415 
	C568.611328,825.406616 542.926331,826.399231 517.333618,823.506348 
	C494.801880,820.959473 472.814087,815.707214 451.612000,807.605896 
	C422.766968,796.584106 396.573547,781.076599 373.500580,760.429443 
	C343.583527,733.657410 321.569305,701.543213 307.588043,663.868164 
	C291.896851,621.585449 287.303314,578.062988 291.432251,533.271362 
	C293.735474,508.285370 298.453186,483.862305 306.108673,460.077087 
	C315.511719,430.862305 328.832916,403.453369 346.316071,378.117950 
	C368.879608,345.420319 396.574188,317.959656 429.941833,296.405304 
	C439.969208,289.927917 450.708710,284.552917 461.451172,278.490662 
M595.112610,586.581665 
	C607.630920,568.272705 614.874756,548.053772 617.620361,526.059753 
	C619.205261,513.363892 621.757629,500.789703 623.382629,488.097717 
	C624.536621,479.084442 626.689697,470.081482 624.413147,460.839020 
	C622.617920,453.550873 619.556030,450.087128 612.536438,449.413483 
	C591.356445,447.381012 571.410034,451.751526 554.496277,464.581085 
	C514.143372,495.189911 499.179291,536.681580 507.075348,585.952759 
	C512.020996,616.813721 541.614319,624.263184 563.587830,614.411560 
	C576.761292,608.505371 586.322937,598.523499 595.112610,586.581665 
z"/>
<path fill="#040404" opacity="1.000000" stroke="none" 
	d="
M594.910828,586.877686 
	C586.322937,598.523499 576.761292,608.505371 563.587830,614.411560 
	C541.614319,624.263184 512.020996,616.813721 507.075348,585.952759 
	C499.179291,536.681580 514.143372,495.189911 554.496277,464.581085 
	C571.410034,451.751526 591.356445,447.381012 612.536438,449.413483 
	C619.556030,450.087128 622.617920,453.550873 624.413147,460.839020 
	C626.689697,470.081482 624.536621,479.084442 623.382629,488.097717 
	C621.757629,500.789703 619.205261,513.363892 617.620361,526.059753 
	C614.874756,548.053772 607.630920,568.272705 594.910828,586.877686 
z"/>
</svg>