<svg version="1.1" id="Layer_1" xmlns="http://www.w3.org/2000/svg" xmlns:xlink="http://www.w3.org/1999/xlink" x="0px" y="0px"
	 width="100%" viewBox="0 0 784 776" enable-background="new 0 0 784 776" xml:space="preserve">
<path fill="#000000" opacity="1.000000" stroke="none" 
	d="
M732.000000,1.000005 
	C732.000000,1.000000 732.500000,1.000000 732.904419,1.367911 
	C735.104675,1.992142 736.930725,2.117507 738.691711,2.524447 
	C764.544128,8.498755 780.036865,26.495312 783.847290,55.481895 
	C783.760376,276.455627 783.766235,496.975281 783.779846,717.494934 
	C783.779968,719.320618 783.885010,721.146362 783.799316,723.338501 
	C781.575500,748.433655 768.269775,764.658081 745.572144,773.581055 
	C741.554321,775.160522 737.199280,775.882202 733.000000,777.000000 
	C506.639801,777.000000 280.279602,777.000000 53.339218,776.636841 
	C51.791035,776.045715 50.826694,775.800781 49.854549,775.592285 
	C22.613085,769.749512 4.583868,745.104309 4.633684,718.274658 
	C5.042376,498.164764 4.863651,278.053772 4.862952,57.943134 
	C4.862868,31.439228 22.003948,9.483955 47.730366,2.961946 
	C49.536617,2.504036 51.245720,1.662921 53.000000,1.000000 
	C53.750000,1.000000 54.500000,1.000000 55.871452,1.343299 
	C57.808945,1.791783 59.124981,1.989054 60.441021,1.989126 
	C282.782043,2.001227 505.123077,2.001192 727.464111,1.956543 
	C728.976135,1.956239 730.488037,1.332591 732.000000,1.000005 
M644.378174,336.159119 
	C634.216858,318.864655 620.222595,305.492859 602.014526,297.195801 
	C568.658142,281.996033 533.643677,278.988129 498.102722,286.714508 
	C465.314667,293.842346 439.221039,311.487671 421.765778,340.800690 
	C421.321045,341.547577 420.576813,342.116150 419.061340,343.749847 
	C419.061340,325.840454 419.061340,309.167877 419.061340,292.350769 
	C381.871643,292.350769 345.304413,292.350769 308.675812,292.350769 
	C308.675812,415.638763 308.675812,538.658447 308.675812,661.682251 
	C347.010529,661.682251 384.941071,661.682251 423.336151,661.682251 
	C423.336151,659.461304 423.336151,657.500671 423.336151,655.540039 
	C423.336670,597.046814 423.010956,538.550537 423.554413,480.062408 
	C423.700348,464.356354 425.243683,448.421387 428.365265,433.042053 
	C432.959015,410.409546 445.685852,393.573578 469.042419,386.920746 
	C480.724121,383.593292 492.679535,382.996490 504.698761,384.668854 
	C524.425232,387.413513 537.968750,398.075928 545.236572,416.669434 
	C551.468811,432.613525 552.897888,449.370636 552.960022,466.203308 
	C553.194397,529.694031 553.123901,593.185852 553.167358,656.677307 
	C553.168457,658.286987 553.167542,659.896606 553.167542,661.650269 
	C591.803345,661.650269 629.856873,661.650269 668.245728,661.650269 
	C668.245728,659.382507 668.245728,657.402466 668.245728,655.422485 
	C668.246094,589.596802 668.472534,523.769775 668.102722,457.946198 
	C667.998230,439.334076 666.865723,420.656738 664.922424,402.143951 
	C662.509766,379.159790 656.599854,356.988708 644.378174,336.159119 
M235.629044,486.500244 
	C235.629044,421.767090 235.629044,357.033966 235.629044,292.371948 
	C196.791397,292.371948 158.706757,292.371948 120.572571,292.371948 
	C120.572571,415.663086 120.572571,538.663208 120.572571,661.638550 
	C159.025116,661.638550 197.096542,661.638550 235.629013,661.638550 
	C235.629013,603.386597 235.629013,545.443420 235.629044,486.500244 
M222.963287,125.518181 
	C209.974167,113.905693 194.639557,107.792053 177.347839,108.221519 
	C136.018997,109.247986 106.941147,143.465637 111.960014,184.457428 
	C116.259926,219.577164 152.440536,246.660172 187.302582,240.635956 
	C214.414536,235.950958 233.328201,220.717072 241.627457,194.464386 
	C249.895416,168.310669 242.956467,145.277740 222.963287,125.518181 
z"/>
<path fill="#F4F4F4" opacity="1.000000" stroke="none" 
	d="
M52.531342,1.000000 
	C51.245720,1.662921 49.536617,2.504036 47.730366,2.961946 
	C22.003948,9.483955 4.862868,31.439228 4.862952,57.943134 
	C4.863651,278.053772 5.042376,498.164764 4.633684,718.274658 
	C4.583868,745.104309 22.613085,769.749512 49.854549,775.592285 
	C50.826694,775.800781 51.791035,776.045715 52.879513,776.636841 
	C35.675285,777.000000 18.350573,777.000000 1.044001,777.000000 
	C1.044001,518.333313 1.044001,259.666656 1.044001,1.000000 
	C18.079563,1.000000 35.071121,1.000000 52.531342,1.000000 
z"/>
<path fill="#FAFAFA" opacity="1.000000" stroke="none" 
	d="
M783.940491,55.027813 
	C780.036865,26.495312 764.544128,8.498755 738.691711,2.524447 
	C736.930725,2.117507 735.104675,1.992142 733.154419,1.367911 
	C750.261475,1.000000 767.522949,1.000000 785.000000,1.000000 
	C785.000000,18.686977 785.000000,36.374832 784.734863,54.528912 
	C784.293274,55.006035 784.116882,55.016926 783.940491,55.027813 
z"/>
<path fill="#FAFAFA" opacity="1.000000" stroke="none" 
	d="
M733.468628,777.000000 
	C737.199280,775.882202 741.554321,775.160522 745.572144,773.581055 
	C768.269775,764.658081 781.575500,748.433655 784.063843,723.354980 
	C784.646729,723.003357 784.823364,723.001648 785.000000,723.000000 
	C785.000000,740.925415 785.000000,758.850769 785.000000,777.000000 
	C767.979736,777.000000 750.958557,777.000000 733.468628,777.000000 
z"/>
<path fill="#3F3F3F" opacity="1.000000" stroke="none" 
	d="
M731.532166,1.000005 
	C730.488037,1.332591 728.976135,1.956239 727.464111,1.956543 
	C505.123077,2.001192 282.782043,2.001227 60.441021,1.989126 
	C59.124981,1.989054 57.808945,1.791783 56.246452,1.343299 
	C281.021454,1.000000 506.042877,1.000000 731.532166,1.000005 
z"/>
<path fill="#D2D2D2" opacity="1.000000" stroke="none" 
	d="
M785.000000,722.536133 
	C784.823364,723.001648 784.646729,723.003357 784.205505,722.988525 
	C783.885010,721.146362 783.779968,719.320618 783.779846,717.494934 
	C783.766235,496.975281 783.760376,276.455627 783.847290,55.481895 
	C784.116882,55.016926 784.293274,55.006035 784.734863,54.997570 
	C785.000000,277.357422 785.000000,499.714844 785.000000,722.536133 
z"/>
<path fill="#FEFEFE" opacity="1.000000" stroke="none" 
	d="
M644.580444,336.466064 
	C656.599854,356.988708 662.509766,379.159790 664.922424,402.143951 
	C666.865723,420.656738 667.998230,439.334076 668.102722,457.946198 
	C668.472534,523.769775 668.246094,589.596802 668.245728,655.422485 
	C668.245728,657.402466 668.245728,659.382507 668.245728,661.650269 
	C629.856873,661.650269 591.803345,661.650269 553.167542,661.650269 
	C553.167542,659.896606 553.168457,658.286987 553.167358,656.677307 
	C553.123901,593.185852 553.194397,529.694031 552.960022,466.203308 
	C552.897888,449.370636 551.468811,432.613525 545.236572,416.669434 
	C537.968750,398.075928 524.425232,387.413513 504.698761,384.668854 
	C492.679535,382.996490 480.724121,383.593292 469.042419,386.920746 
	C445.685852,393.573578 432.959015,410.409546 428.365265,433.042053 
	C425.243683,448.421387 423.700348,464.356354 423.554413,480.062408 
	C423.010956,538.550537 423.336670,597.046814 423.336151,655.540039 
	C423.336151,657.500671 423.336151,659.461304 423.336151,661.682251 
	C384.941071,661.682251 347.010529,661.682251 308.675812,661.682251 
	C308.675812,538.658447 308.675812,415.638763 308.675812,292.350769 
	C345.304413,292.350769 381.871643,292.350769 419.061340,292.350769 
	C419.061340,309.167877 419.061340,325.840454 419.061340,343.749847 
	C420.576813,342.116150 421.321045,341.547577 421.765778,340.800690 
	C439.221039,311.487671 465.314667,293.842346 498.102722,286.714508 
	C533.643677,278.988129 568.658142,281.996033 602.014526,297.195801 
	C620.222595,305.492859 634.216858,318.864655 644.580444,336.466064 
z"/>
<path fill="#FDFDFD" opacity="1.000000" stroke="none" 
	d="
M235.629028,487.000244 
	C235.629013,545.443420 235.629013,603.386597 235.629013,661.638550 
	C197.096542,661.638550 159.025116,661.638550 120.572571,661.638550 
	C120.572571,538.663208 120.572571,415.663086 120.572571,292.371948 
	C158.706757,292.371948 196.791397,292.371948 235.629044,292.371948 
	C235.629044,357.033966 235.629044,421.767090 235.629028,487.000244 
z"/>
<path fill="#FEFEFE" opacity="1.000000" stroke="none" 
	d="
M223.207748,125.777580 
	C242.956467,145.277740 249.895416,168.310669 241.627457,194.464386 
	C233.328201,220.717072 214.414536,235.950958 187.302582,240.635956 
	C152.440536,246.660172 116.259926,219.577164 111.960014,184.457428 
	C106.941147,143.465637 136.018997,109.247986 177.347839,108.221519 
	C194.639557,107.792053 209.974167,113.905693 223.207748,125.777580 
z"/>
</svg>