<svg version="1.1" id="Layer_1" xmlns="http://www.w3.org/2000/svg" xmlns:xlink="http://www.w3.org/1999/xlink" x="0px" y="0px"
	 width="100%" viewBox="0 0 128 120" enable-background="new 0 0 128 120" xml:space="preserve">
<path fill="#030303" opacity="1.000000" stroke="none" 
	d="
M129.000000,52.000000 
	C129.000000,58.354397 129.000000,64.708794 128.636292,71.650116 
	C125.649231,85.265251 120.298386,97.120827 110.448906,106.058197 
	C104.049202,111.865265 96.199867,116.074753 89.000000,121.000000 
	C73.312439,121.000000 57.624878,121.000000 41.289852,120.699951 
	C23.862665,113.258659 12.055223,101.204063 5.232160,84.323082 
	C3.606928,80.302086 2.399565,76.112206 1.000000,72.000000 
	C1.000000,64.979050 1.000000,57.958103 1.357508,50.336620 
	C4.067754,38.316277 8.730788,28.015949 16.333370,19.081547 
	C23.134727,11.088730 31.818050,5.717187 41.000000,1.000000 
	C56.687561,1.000000 72.375122,1.000000 88.713684,1.298011 
	C103.003769,7.314806 113.878250,16.416708 120.685295,29.509441 
	C124.343353,36.545399 126.284264,44.474117 129.000000,52.000000 
M95.191628,42.247971 
	C82.878654,33.241917 68.875237,37.404499 55.475739,36.456615 
	C55.475739,54.715916 55.475739,72.284920 55.475739,90.115974 
	C63.611771,90.115974 71.418236,90.520569 79.166473,90.021324 
	C90.840294,89.269135 99.488731,83.371025 103.321823,72.214394 
	C107.159920,61.043190 104.464661,50.964207 95.191628,42.247971 
M44.182781,64.506065 
	C44.182781,55.287132 44.182781,46.068199 44.182781,36.766647 
	C41.171268,36.766647 38.767529,36.766647 36.399632,36.766647 
	C36.399632,54.666317 36.399632,72.193817 36.399632,89.803879 
	C39.204212,89.803879 41.710423,89.803879 44.255688,89.803879 
	C44.255688,81.422470 44.255688,73.464157 44.182781,64.506065 
M41.801395,30.197912 
	C45.016109,29.407455 46.317932,26.789551 45.123661,24.318939 
	C44.222458,22.454596 41.350147,20.451054 39.428280,20.520920 
	C37.916847,20.575865 35.422733,23.635439 35.309303,25.479908 
	C35.110203,28.717312 37.355087,30.884430 41.801395,30.197912 
z"/>
<path fill="#FAFAFA" opacity="1.000000" stroke="none" 
	d="
M89.468658,121.000000 
	C96.199867,116.074753 104.049202,111.865265 110.448906,106.058197 
	C120.298386,97.120827 125.649231,85.265251 128.636292,72.118515 
	C129.000000,88.252625 129.000000,104.505241 129.000000,121.000000 
	C115.980103,121.000000 102.958710,121.000000 89.468658,121.000000 
z"/>
<path fill="#FAFAFA" opacity="1.000000" stroke="none" 
	d="
M129.000000,51.531342 
	C126.284264,44.474117 124.343353,36.545399 120.685295,29.509441 
	C113.878250,16.416708 103.003769,7.314806 89.182343,1.298011 
	C102.268906,1.000000 115.537811,1.000000 129.000000,1.000000 
	C129.000000,17.687063 129.000000,34.374874 129.000000,51.531342 
z"/>
<path fill="#FAFAFA" opacity="1.000000" stroke="none" 
	d="
M1.000000,72.468658 
	C2.399565,76.112206 3.606928,80.302086 5.232160,84.323082 
	C12.055223,101.204063 23.862665,113.258659 40.821194,120.699951 
	C27.732553,121.000000 14.465106,121.000000 1.000000,121.000000 
	C1.000000,104.979645 1.000000,88.958481 1.000000,72.468658 
z"/>
<path fill="#FBFBFB" opacity="1.000000" stroke="none" 
	d="
M40.531342,1.000000 
	C31.818050,5.717187 23.134727,11.088730 16.333370,19.081547 
	C8.730788,28.015949 4.067754,38.316277 1.357508,49.868042 
	C1.000000,33.747375 1.000000,17.494755 1.000000,1.000000 
	C14.019895,1.000000 27.041288,1.000000 40.531342,1.000000 
z"/>
<path fill="#F4F4F4" opacity="1.000000" stroke="none" 
	d="
M95.450943,42.497009 
	C104.464661,50.964207 107.159920,61.043190 103.321823,72.214394 
	C99.488731,83.371025 90.840294,89.269135 79.166473,90.021324 
	C71.418236,90.520569 63.611771,90.115974 55.475739,90.115974 
	C55.475739,72.284920 55.475739,54.715916 55.475739,36.456615 
	C68.875237,37.404499 82.878654,33.241917 95.450943,42.497009 
M82.308586,82.159485 
	C90.327080,79.900887 95.010651,74.580353 96.334709,66.436676 
	C97.508904,59.214760 95.691673,52.762012 89.792526,48.175259 
	C81.813812,41.971588 72.510986,43.507698 63.433052,43.806957 
	C63.433052,57.134510 63.433052,69.865410 63.433052,82.987595 
	C68.156654,82.987595 72.612755,83.042587 77.066132,82.956528 
	C78.542061,82.927994 80.010971,82.536537 82.308586,82.159485 
z"/>
<path fill="#F4F4F4" opacity="1.000000" stroke="none" 
	d="
M44.219234,65.005951 
	C44.255688,73.464157 44.255688,81.422470 44.255688,89.803879 
	C41.710423,89.803879 39.204212,89.803879 36.399632,89.803879 
	C36.399632,72.193817 36.399632,54.666317 36.399632,36.766647 
	C38.767529,36.766647 41.171268,36.766647 44.182781,36.766647 
	C44.182781,46.068199 44.182781,55.287132 44.219234,65.005951 
z"/>
<path fill="#EDEDED" opacity="1.000000" stroke="none" 
	d="
M41.451992,30.312843 
	C37.355087,30.884430 35.110203,28.717312 35.309303,25.479908 
	C35.422733,23.635439 37.916847,20.575865 39.428280,20.520920 
	C41.350147,20.451054 44.222458,22.454596 45.123661,24.318939 
	C46.317932,26.789551 45.016109,29.407455 41.451992,30.312843 
z"/>
<path fill="#060606" opacity="1.000000" stroke="none" 
	d="
M81.895844,82.235245 
	C80.010971,82.536537 78.542061,82.927994 77.066132,82.956528 
	C72.612755,83.042587 68.156654,82.987595 63.433052,82.987595 
	C63.433052,69.865410 63.433052,57.134510 63.433052,43.806957 
	C72.510986,43.507698 81.813812,41.971588 89.792526,48.175259 
	C95.691673,52.762012 97.508904,59.214760 96.334709,66.436676 
	C95.010651,74.580353 90.327080,79.900887 81.895844,82.235245 
z"/>
</svg>