<svg version="1.1" id="Layer_1" xmlns="http://www.w3.org/2000/svg" xmlns:xlink="http://www.w3.org/1999/xlink" x="0px" y="0px"
	 width="100%" viewBox="0 0 355 355" enable-background="new 0 0 355 355" xml:space="preserve">
<path fill="#1D1D1D" opacity="1.000000" stroke="none" 
	d="
M260.000000,1.000002 
	C261.388885,1.000000 262.777802,1.000000 264.734741,1.380807 
	C269.066589,2.339416 272.894836,2.649351 276.584351,3.536310 
	C314.893433,12.745832 339.640015,36.457695 351.413086,74.158493 
	C351.600769,74.953323 351.866547,75.463303 352.133698,76.299332 
	C352.256531,77.040733 352.377991,77.456078 352.416595,78.192062 
	C352.631775,79.326958 352.929840,80.141220 353.221405,81.280243 
	C353.312347,82.024277 353.409760,82.443550 353.413330,83.183365 
	C353.586670,84.332291 353.853821,85.160683 354.104187,86.399757 
	C354.264801,88.161270 354.442230,89.512093 354.487793,91.238083 
	C354.562286,93.410843 354.768585,95.208435 354.901154,97.469353 
	C354.820282,136.663849 354.796906,175.395035 354.814270,214.126221 
	C354.820984,229.082352 354.920166,244.038452 354.857483,259.327026 
	C354.907532,261.436401 355.077332,263.213348 355.043762,265.354156 
	C354.216644,268.696472 353.555267,271.667542 352.974854,274.654388 
	C343.253967,324.678802 303.961487,349.776489 264.752991,354.974182 
	C261.705658,354.723511 258.894043,354.795074 256.082428,354.795441 
	C204.046478,354.802429 152.010544,354.799377 99.974594,354.806458 
	C97.659187,354.806793 95.343788,354.883606 92.649704,354.792755 
	C48.273952,351.045349 12.398626,318.983917 3.381596,276.265198 
	C2.723642,273.148102 1.800075,270.087097 0.999998,267.000000 
	C1.000000,265.285828 1.000000,263.571686 1.356376,261.189941 
	C1.816880,259.871887 2.012005,259.221375 2.012182,258.570831 
	C2.026658,205.231445 2.032586,151.892059 1.983519,98.552719 
	C1.982429,97.368179 1.342126,96.184227 1.000000,95.000000 
	C1.000000,93.285835 1.000000,91.571678 1.376939,89.316864 
	C1.922720,87.966835 2.132442,87.163567 2.254552,86.347191 
	C8.959132,41.522915 43.717163,8.673317 85.639992,2.354716 
	C86.801666,2.179629 87.881828,1.463722 89.000000,1.000001 
	C91.041664,1.000000 93.083336,1.000000 95.814682,1.343955 
	C97.156418,1.797635 97.808464,2.003292 98.460548,2.003426 
	C151.109833,2.014197 203.759109,2.015572 256.408356,1.962899 
	C257.605896,1.961701 258.802795,1.334958 260.000000,1.000002 
M132.512772,86.051826 
	C81.061623,112.268547 60.156700,171.998444 85.175812,222.640091 
	C88.529167,229.427658 89.182259,235.435989 87.621948,242.541321 
	C85.284630,253.184967 83.696152,263.993042 81.703667,275.212799 
	C83.453140,275.077972 84.587616,275.070312 85.694923,274.893036 
	C98.511475,272.841156 111.309624,270.666138 124.150757,268.783691 
	C126.433800,268.449005 129.181595,268.704773 131.222092,269.699036 
	C149.330215,278.522400 168.297913,282.014526 188.399246,280.291840 
	C245.196167,275.424286 288.168976,222.427048 280.876129,165.991425 
	C271.783783,95.630226 197.437439,55.234516 132.512772,86.051826 
z"/>
<path fill="#FCFCFC" opacity="1.000000" stroke="none" 
	d="
M264.988678,355.263275 
	C303.961487,349.776489 343.253967,324.678802 352.974854,274.654388 
	C353.555267,271.667542 354.216644,268.696472 355.230743,265.452087 
	C355.621094,265.186157 356.000000,265.000000 356.000000,265.000000 
	C356.000000,295.260254 356.000000,325.520477 356.000000,356.000000 
	C325.979462,356.000000 295.958374,356.000000 265.521973,355.814941 
	C265.106628,355.629913 264.988678,355.263275 264.988678,355.263275 
z"/>
<path fill="#FCFCFC" opacity="1.000000" stroke="none" 
	d="
M0.999998,267.468658 
	C1.800075,270.087097 2.723642,273.148102 3.381596,276.265198 
	C12.398626,318.983917 48.273952,351.045349 92.625023,355.061096 
	C92.986015,355.640991 92.993004,355.820496 93.000000,356.000000 
	C62.407631,356.000000 31.815262,356.000000 1.000000,356.000000 
	C1.000000,326.646149 1.000000,297.291718 0.999998,267.468658 
z"/>
<path fill="#FDFDFD" opacity="1.000000" stroke="none" 
	d="
M353.507172,82.862823 
	C353.409760,82.443550 353.312347,82.024277 353.423065,81.086731 
	C353.253937,79.669449 352.876709,78.770432 352.499451,77.871422 
	C352.377991,77.456078 352.256531,77.040733 352.323181,76.148979 
	C352.171234,75.072922 351.831238,74.473274 351.491211,73.873642 
	C339.640015,36.457695 314.893433,12.745832 276.584351,3.536310 
	C272.894836,2.649351 269.066589,2.339416 265.151367,1.380807 
	C295.256439,1.000000 325.512848,1.000000 356.000000,1.000000 
	C356.000000,28.020456 356.000000,55.041569 355.690979,82.607132 
	C354.757019,83.055321 354.132080,82.959068 353.507172,82.862823 
z"/>
<path fill="#FDFDFD" opacity="1.000000" stroke="none" 
	d="
M88.531342,1.000001 
	C87.881828,1.463722 86.801666,2.179629 85.639992,2.354716 
	C43.717163,8.673317 8.959132,41.522915 2.254552,86.347191 
	C2.132442,87.163567 1.922720,87.966835 1.376939,88.888107 
	C1.000000,59.739754 1.000000,30.479509 1.000000,1.000000 
	C30.020527,1.000000 59.041603,1.000000 88.531342,1.000001 
z"/>
<path fill="#CDCDCD" opacity="1.000000" stroke="none" 
	d="
M93.468658,356.000000 
	C92.993004,355.820496 92.986015,355.640991 93.003708,355.193176 
	C95.343788,354.883606 97.659187,354.806793 99.974594,354.806458 
	C152.010544,354.799377 204.046478,354.802429 256.082428,354.795441 
	C258.894043,354.795074 261.705658,354.723511 264.752991,354.974182 
	C264.988678,355.263275 265.106628,355.629913 265.053314,355.814941 
	C207.979111,356.000000 150.958206,356.000000 93.468658,356.000000 
z"/>
<path fill="#707070" opacity="1.000000" stroke="none" 
	d="
M1.000000,95.468658 
	C1.342126,96.184227 1.982429,97.368179 1.983519,98.552719 
	C2.032586,151.892059 2.026658,205.231445 2.012182,258.570831 
	C2.012005,259.221375 1.816880,259.871887 1.356376,260.761200 
	C1.000000,205.979111 1.000000,150.958206 1.000000,95.468658 
z"/>
<path fill="#6F6F6F" opacity="1.000000" stroke="none" 
	d="
M259.531342,1.000002 
	C258.802795,1.334958 257.605896,1.961701 256.408356,1.962899 
	C203.759109,2.015572 151.109833,2.014197 98.460548,2.003426 
	C97.808464,2.003292 97.156418,1.797635 96.252182,1.343955 
	C150.354233,1.000000 204.708450,1.000000 259.531342,1.000002 
z"/>
<path fill="#CECECE" opacity="1.000000" stroke="none" 
	d="
M354.977234,258.994568 
	C354.920166,244.038452 354.820984,229.082352 354.814270,214.126221 
	C354.796906,175.395035 354.820282,136.663849 355.157410,97.465546 
	C355.658295,96.998940 355.829132,96.999466 356.000000,97.000000 
	C356.000000,150.687561 356.000000,204.375122 355.744293,258.532471 
	C355.318146,258.999725 355.147675,258.997162 354.977234,258.994568 
z"/>
<path fill="#C6C6C6" opacity="1.000000" stroke="none" 
	d="
M356.000000,96.571533 
	C355.829132,96.999466 355.658295,96.998940 355.231171,97.002228 
	C354.768585,95.208435 354.562286,93.410843 354.721252,91.234619 
	C355.378815,90.981567 355.683319,91.029572 356.000000,91.000000 
	C356.000000,92.714355 356.000000,94.428719 356.000000,96.571533 
z"/>
<path fill="#C6C6C6" opacity="1.000000" stroke="none" 
	d="
M354.857483,259.327026 
	C355.147675,258.997162 355.318146,258.999725 355.744293,259.001160 
	C356.000000,260.714355 356.000000,262.428711 356.000000,264.571533 
	C356.000000,265.000000 355.621094,265.186157 355.434082,265.088196 
	C355.077332,263.213348 354.907532,261.436401 354.857483,259.327026 
z"/>
<path fill="#FDFDFD" opacity="1.000000" stroke="none" 
	d="
M356.000000,90.583336 
	C355.683319,91.029572 355.378815,90.981567 354.853088,90.859459 
	C354.442230,89.512093 354.264801,88.161270 354.419800,86.399788 
	C355.168121,85.992760 355.584076,85.996376 356.000000,86.000000 
	C356.000000,87.388893 356.000000,88.777779 356.000000,90.583336 
z"/>
<path fill="#C6C6C6" opacity="1.000000" stroke="none" 
	d="
M356.000000,85.625000 
	C355.584076,85.996376 355.168121,85.992760 354.436584,85.989105 
	C353.853821,85.160683 353.586670,84.332291 353.413330,83.183365 
	C354.132080,82.959068 354.757019,83.055321 355.690979,83.075790 
	C356.000000,83.750000 356.000000,84.500000 356.000000,85.625000 
z"/>
<path fill="#F9F9F9" opacity="1.000000" stroke="none" 
	d="
M132.855789,85.901772 
	C197.437439,55.234516 271.783783,95.630226 280.876129,165.991425 
	C288.168976,222.427048 245.196167,275.424286 188.399246,280.291840 
	C168.297913,282.014526 149.330215,278.522400 131.222092,269.699036 
	C129.181595,268.704773 126.433800,268.449005 124.150757,268.783691 
	C111.309624,270.666138 98.511475,272.841156 85.694923,274.893036 
	C84.587616,275.070312 83.453140,275.077972 81.703667,275.212799 
	C83.696152,263.993042 85.284630,253.184967 87.621948,242.541321 
	C89.182259,235.435989 88.529167,229.427658 85.175812,222.640091 
	C60.156700,171.998444 81.061623,112.268547 132.855789,85.901772 
M255.345642,217.735260 
	C270.380035,186.719910 268.819733,156.428055 248.815598,128.473785 
	C228.611832,100.240524 200.117554,88.307724 165.623428,92.998070 
	C102.992691,101.514313 70.908661,172.340393 105.225327,225.296021 
	C106.635498,227.472122 107.102806,230.850327 106.721901,233.482132 
	C105.690857,240.605972 103.965286,247.629272 102.384590,255.328583 
	C111.052567,253.729095 118.848862,252.137466 126.705627,250.943878 
	C128.773376,250.629761 131.363281,250.961960 133.148117,251.984268 
	C177.340378,277.296753 229.949097,262.852844 255.345642,217.735260 
z"/>
<path fill="#C6C6C6" opacity="1.000000" stroke="none" 
	d="
M352.416595,78.192062 
	C352.876709,78.770432 353.253937,79.669449 353.429535,80.761971 
	C352.929840,80.141220 352.631775,79.326958 352.416595,78.192062 
z"/>
<path fill="#C6C6C6" opacity="1.000000" stroke="none" 
	d="
M351.413086,74.158485 
	C351.831238,74.473274 352.171234,75.072922 352.321777,75.822922 
	C351.866547,75.463303 351.600769,74.953323 351.413086,74.158485 
z"/>
<path fill="#1E1E1E" opacity="1.000000" stroke="none" 
	d="
M255.184753,218.069962 
	C229.949097,262.852844 177.340378,277.296753 133.148117,251.984268 
	C131.363281,250.961960 128.773376,250.629761 126.705627,250.943878 
	C118.848862,252.137466 111.052567,253.729095 102.384590,255.328583 
	C103.965286,247.629272 105.690857,240.605972 106.721901,233.482132 
	C107.102806,230.850327 106.635498,227.472122 105.225327,225.296021 
	C70.908661,172.340393 102.992691,101.514313 165.623428,92.998070 
	C200.117554,88.307724 228.611832,100.240524 248.815598,128.473785 
	C268.819733,156.428055 270.380035,186.719910 255.184753,218.069962 
M166.484009,212.022812 
	C176.621277,216.945969 186.576111,222.304855 196.955276,226.650269 
	C204.833984,229.948807 212.616104,227.688171 219.881531,223.553894 
	C226.008911,220.067169 228.538513,214.489197 228.962692,207.877975 
	C229.064575,206.290054 227.928787,203.879044 226.611237,203.070908 
	C220.516998,199.332825 214.165253,196.013138 207.890411,192.571579 
	C205.131409,191.058365 202.940430,191.616562 200.935364,194.155212 
	C198.877319,196.760971 196.387665,199.020828 194.211243,201.539505 
	C192.147369,203.927902 190.039551,204.198837 187.166626,202.797073 
	C175.181839,196.949432 165.553452,188.535355 158.442322,177.242126 
	C153.506912,169.404160 153.407211,169.331665 159.674057,162.743027 
	C163.238510,158.995544 164.694580,155.307312 162.199219,150.209518 
	C160.167267,146.058441 159.047318,141.462509 157.502716,137.070969 
	C154.476196,128.466019 145.580978,126.291130 138.775406,132.483337 
	C128.688400,141.661224 126.061058,154.592819 132.512802,168.618332 
	C140.260880,185.461899 151.154053,200.088211 166.484009,212.022812 
z"/>
<path fill="#FAFAFA" opacity="1.000000" stroke="none" 
	d="
M166.198914,211.808746 
	C151.154053,200.088211 140.260880,185.461899 132.512802,168.618332 
	C126.061058,154.592819 128.688400,141.661224 138.775406,132.483337 
	C145.580978,126.291130 154.476196,128.466019 157.502716,137.070969 
	C159.047318,141.462509 160.167267,146.058441 162.199219,150.209518 
	C164.694580,155.307312 163.238510,158.995544 159.674057,162.743027 
	C153.407211,169.331665 153.506912,169.404160 158.442322,177.242126 
	C165.553452,188.535355 175.181839,196.949432 187.166626,202.797073 
	C190.039551,204.198837 192.147369,203.927902 194.211243,201.539505 
	C196.387665,199.020828 198.877319,196.760971 200.935364,194.155212 
	C202.940430,191.616562 205.131409,191.058365 207.890411,192.571579 
	C214.165253,196.013138 220.516998,199.332825 226.611237,203.070908 
	C227.928787,203.879044 229.064575,206.290054 228.962692,207.877975 
	C228.538513,214.489197 226.008911,220.067169 219.881531,223.553894 
	C212.616104,227.688171 204.833984,229.948807 196.955276,226.650269 
	C186.576111,222.304855 176.621277,216.945969 166.198914,211.808746 
z"/>
</svg>